<svg width="96" height="36" viewBox="0 0 96 36" fill="none" xmlns="http://www.w3.org/2000/svg">
<path d="M0.443182 0.0909081H8.18182L18.5455 25.3864H18.9545L29.3182 0.0909081H37.0568V35H30.9886V11.017H30.6648L21.017 34.8977H16.483L6.83523 10.9659H6.51136V35H0.443182V0.0909081ZM55.2614 35.5114C52.6364 35.5114 50.3693 34.9659 48.4602 33.875C46.5625 32.7727 45.1023 31.2159 44.0795 29.2045C43.0568 27.1818 42.5455 24.8011 42.5455 22.0625C42.5455 19.3693 43.0568 17.0057 44.0795 14.9716C45.1136 12.9261 46.5568 11.3352 48.4091 10.1989C50.2614 9.05114 52.4375 8.47727 54.9375 8.47727C56.5511 8.47727 58.0739 8.73864 59.5057 9.26136C60.9489 9.77273 62.2216 10.5682 63.3239 11.6477C64.4375 12.7273 65.3125 14.1023 65.9489 15.7727C66.5852 17.4318 66.9034 19.4091 66.9034 21.7045V23.5966H45.4432V19.4375H60.9886C60.9773 18.2557 60.7216 17.2045 60.2216 16.2841C59.7216 15.3523 59.0227 14.6193 58.125 14.0852C57.2386 13.5511 56.2045 13.2841 55.0227 13.2841C53.7614 13.2841 52.6534 13.5909 51.6989 14.2045C50.7443 14.8068 50 15.6023 49.4659 16.5909C48.9432 17.5682 48.6761 18.642 48.6648 19.8125V23.4432C48.6648 24.9659 48.9432 26.2727 49.5 27.3636C50.0568 28.4432 50.8352 29.2727 51.8352 29.8523C52.8352 30.4205 54.0057 30.7045 55.3466 30.7045C56.2443 30.7045 57.0568 30.5795 57.7841 30.3295C58.5114 30.0682 59.142 29.6875 59.6761 29.1875C60.2102 28.6875 60.6136 28.0682 60.8864 27.3295L66.6477 27.9773C66.2841 29.5 65.5909 30.8295 64.5682 31.9659C63.5568 33.0909 62.2614 33.9659 60.6818 34.5909C59.1023 35.2045 57.2955 35.5114 55.2614 35.5114ZM81.8395 35.4602C79.7827 35.4602 77.9418 34.9318 76.3168 33.875C74.6918 32.8182 73.4077 31.2841 72.4645 29.2727C71.5213 27.2614 71.0497 24.8182 71.0497 21.9432C71.0497 19.0341 71.527 16.5795 72.4815 14.5795C73.4474 12.5682 74.7486 11.0511 76.3849 10.0284C78.0213 8.99432 79.8452 8.47727 81.8565 8.47727C83.3906 8.47727 84.652 8.73864 85.6406 9.26136C86.6293 9.77273 87.4134 10.392 87.9929 11.1193C88.5724 11.8352 89.0213 12.5114 89.3395 13.1477H89.5952V0.0909081H95.7827V35H89.7145V30.875H89.3395C89.0213 31.5114 88.5611 32.1875 87.9588 32.9034C87.3565 33.608 86.5611 34.2102 85.5724 34.7102C84.5838 35.2102 83.3395 35.4602 81.8395 35.4602ZM83.5611 30.3977C84.8679 30.3977 85.9815 30.0455 86.902 29.3409C87.8224 28.625 88.5213 27.6307 88.9986 26.358C89.4759 25.0852 89.7145 23.6023 89.7145 21.9091C89.7145 20.2159 89.4759 18.7443 88.9986 17.4943C88.5327 16.2443 87.8395 15.2727 86.919 14.5795C86.0099 13.8864 84.8906 13.5398 83.5611 13.5398C82.1861 13.5398 81.0384 13.8977 80.1179 14.6136C79.1974 15.3295 78.5043 16.3182 78.0384 17.5795C77.5724 18.8409 77.3395 20.2841 77.3395 21.9091C77.3395 23.5455 77.5724 25.0057 78.0384 26.2898C78.5156 27.5625 79.2145 28.5682 80.1349 29.3068C81.0668 30.0341 82.2088 30.3977 83.5611 30.3977Z" fill="#074BA5"/>
</svg>
